{
	"asset": {
		"generator": "Blocks 4.0.1_OVR_RC0",
		"version": "1.1",
		"copyright": "Unknown"
	},
	"buffers": {
		"model": {
			"byteLength": 382232,
			"type": "arraybuffer",
			"uri": "model.bin"
		}
	},
	"accessors": {
		"accessor_position_m0-PolyPaper4_-1380100": {
			"bufferView": "vec3BufferView",
			"byteOffset": 0,
			"byteStride": 12,
			"componentType": 5126,
			"count": 5664,
			"max": [ 2.452172, 1.249664, 2.499331 ],
			"min": [ -4.502302, -3.654678, -0.7780929 ],
			"type": "VEC3"
		 },
		"accessor_normal_m0-PolyPaper4_-1380100": {
			"bufferView": "vec3BufferView",
			"byteOffset": 67968,
			"byteStride": 12,
			"componentType": 5126,
			"count": 5664,
			"max": [ 1, 1, 1 ],
			"min": [ -1, -1, -1 ],
			"type": "VEC3"
		 },
		"accessor_color_m0-PolyPaper4_-1380100": {
			"bufferView": "vec4BufferView",
			"byteOffset": 0,
			"byteStride": 16,
			"componentType": 5126,
			"count": 5664,
			"max": [ 1, 0.8705882, 0.9176471, 1 ],
			"min": [ 0, 0.1019608, 0, 1 ],
			"type": "VEC4"
		 },
		"accessor_indices_0_m0-PolyPaper4_-1380100": {
			"bufferView": "ushortBufferView",
			"byteOffset": 0,
			"byteStride": 0,
			"componentType": 5123,
			"count": 8496,
			"max": [ 5663 ],
			"min": [ 0 ],
			"type": "SCALAR"
		 },
		"accessor_position_m1-PolyGlass24_-1380106": {
			"bufferView": "vec3BufferView",
			"byteOffset": 135936,
			"byteStride": 12,
			"componentType": 5126,
			"count": 3152,
			"max": [ 0.16505, 2.452171, 0.2357861 ],
			"min": [ -0.16505, -2.452173, -3.065215 ],
			"type": "VEC3"
		 },
		"accessor_normal_m1-PolyGlass24_-1380106": {
			"bufferView": "vec3BufferView",
			"byteOffset": 173760,
			"byteStride": 12,
			"componentType": 5126,
			"count": 3152,
			"max": [ 1, 1, 1 ],
			"min": [ -1, -1, -1 ],
			"type": "VEC3"
		 },
		"accessor_color_m1-PolyGlass24_-1380106": {
			"bufferView": "vec4BufferView",
			"byteOffset": 90624,
			"byteStride": 16,
			"componentType": 5126,
			"count": 3152,
			"max": [ 1, 1, 1, 1 ],
			"min": [ 1, 1, 1, 1 ],
			"type": "VEC4"
		 },
		"accessor_indices_0_m1-PolyGlass24_-1380106": {
			"bufferView": "ushortBufferView",
			"byteOffset": 16992,
			"byteStride": 0,
			"componentType": 5123,
			"count": 4752,
			"max": [ 3151 ],
			"min": [ 0 ],
			"type": "SCALAR"
		 },
		"accessor_position_m2-PolyGem25_-1380112": {
			"bufferView": "vec3BufferView",
			"byteOffset": 211584,
			"byteStride": 12,
			"componentType": 5126,
			"count": 72,
			"max": [ 0.03536786, 0.03536786, 0.03536786 ],
			"min": [ -0.03536786, -0.03536786, -0.03536786 ],
			"type": "VEC3"
		 },
		"accessor_normal_m2-PolyGem25_-1380112": {
			"bufferView": "vec3BufferView",
			"byteOffset": 212448,
			"byteStride": 12,
			"componentType": 5126,
			"count": 72,
			"max": [ 1, 1, 1 ],
			"min": [ -1, -1, -1 ],
			"type": "VEC3"
		 },
		"accessor_color_m2-PolyGem25_-1380112": {
			"bufferView": "vec4BufferView",
			"byteOffset": 141056,
			"byteStride": 16,
			"componentType": 5126,
			"count": 72,
			"max": [ 1, 1, 1, 1 ],
			"min": [ 1, 1, 1, 1 ],
			"type": "VEC4"
		 },
		"accessor_indices_0_m2-PolyGem25_-1380112": {
			"bufferView": "ushortBufferView",
			"byteOffset": 26496,
			"byteStride": 0,
			"componentType": 5123,
			"count": 108,
			"max": [ 71 ],
			"min": [ 0 ],
			"type": "SCALAR"
		 }
	},
	"bufferViews": {
		"ushortBufferView": {
			"buffer": "model",
			"byteLength": 26712,
			"byteOffset": 0,
			"target": 34963
		},
		"vec3BufferView": {
			"buffer": "model",
			"byteLength": 213312,
			"byteOffset": 26712,
			"target": 34962
		},
		"vec4BufferView": {
			"buffer": "model",
			"byteLength": 142208,
			"byteOffset": 240024,
			"target": 34962
		}
	},
	"meshes": {
		"mesh_m0-PolyPaper4_-1380100": {
			"name": "mesh_m0-PolyPaper4_-1380100",
			"primitives": [
				{
					"attributes": {
						"POSITION": "accessor_position_m0-PolyPaper4_-1380100",
						"NORMAL": "accessor_normal_m0-PolyPaper4_-1380100",
						"COLOR": "accessor_color_m0-PolyPaper4_-1380100"
					},
					"indices": "accessor_indices_0_m0-PolyPaper4_-1380100",
					"material": "material_mat4",
					"mode": 4
				}
			]
		},
		"mesh_m1-PolyGlass24_-1380106": {
			"name": "mesh_m1-PolyGlass24_-1380106",
			"primitives": [
				{
					"attributes": {
						"POSITION": "accessor_position_m1-PolyGlass24_-1380106",
						"NORMAL": "accessor_normal_m1-PolyGlass24_-1380106",
						"COLOR": "accessor_color_m1-PolyGlass24_-1380106"
					},
					"indices": "accessor_indices_0_m1-PolyGlass24_-1380106",
					"material": "material_mat24",
					"mode": 4
				}
			]
		},
		"mesh_m2-PolyGem25_-1380112": {
			"name": "mesh_m2-PolyGem25_-1380112",
			"primitives": [
				{
					"attributes": {
						"POSITION": "accessor_position_m2-PolyGem25_-1380112",
						"NORMAL": "accessor_normal_m2-PolyGem25_-1380112",
						"COLOR": "accessor_color_m2-PolyGem25_-1380112"
					},
					"indices": "accessor_indices_0_m2-PolyGem25_-1380112",
					"material": "material_mat25",
					"mode": 4
				}
			]
		}
	},
	"shaders": {
		"vertex_mat4": {
			"type": 35633,
			"uri": "https://vr.google.com/shaders/w/vs.glsl"
		},
		"fragment_mat4": {
			"type": 35632,
			"uri": "https://vr.google.com/shaders/w/fs.glsl"
		},
		"vertex_mat24": {
			"type": 35633,
			"uri": "https://vr.google.com/shaders/w/glassVS.glsl"
		},
		"fragment_mat24": {
			"type": 35632,
			"uri": "https://vr.google.com/shaders/w/glassFS.glsl"
		},
		"vertex_mat25": {
			"type": 35633,
			"uri": "https://vr.google.com/shaders/w/gemVS.glsl"
		},
		"fragment_mat25": {
			"type": 35632,
			"uri": "https://vr.google.com/shaders/w/gemFS.glsl"
		}
	},
	"programs": {
		"program_mat4": {
			"attributes": [
				"a_position",
				"a_normal",
				"a_color"				
			],
			"vertexShader": "vertex_mat4",
			"fragmentShader": "fragment_mat4"
		},
		"program_mat24": {
			"attributes": [
				"a_position",
				"a_normal",
				"a_color"				
			],
			"vertexShader": "vertex_mat24",
			"fragmentShader": "fragment_mat24"
		},
		"program_mat25": {
			"attributes": [
				"a_position",
				"a_normal",
				"a_color"				
			],
			"vertexShader": "vertex_mat25",
			"fragmentShader": "fragment_mat25"
		}
	},
	"techniques": {
		"technique_mat4": {
			"program": "program_mat4",
			"extras": {"gvrss" : "https://vr.google.com/shaders/w/gvrss/paper.json"},
			"parameters": {
				"position": {
					"type": 35665,
					"semantic": "POSITION"
				},
				"normal": {
					"type": 35665,
					"semantic": "NORMAL"
				},
				"color": {
					"type": 35666,
					"semantic": "COLOR"
				},
				"modelViewMatrix": {
					"type": 35676,
					"semantic": "MODELVIEW"
				},
				"projectionMatrix": {
					"type": 35676,
					"semantic": "PROJECTION"
				},
				"normalMatrix": {
					"type": 35675,
					"semantic": "MODELVIEWINVERSETRANSPOSE"
				},
				"color": {
					"type": 35666
				},
				"roughness": {
					"type": 5126
				},
				"metallic": {
					"type": 5126
				},
				"light0Pos": {
					"type": 35666
				},
				"light0Color": {
					"type": 35666
				},
				"light1Pos": {
					"type": 35666
				},
				"light1Color": {
					"type": 35666
				}				
			},
			"attributes": {
				"a_position": "position",
				"a_normal": "normal",
				"a_color": "color"				
			},
			"uniforms": {
				"u_modelViewMatrix": "modelViewMatrix",
				"u_projectionMatrix": "projectionMatrix",
				"u_normalMatrix": "normalMatrix",
				"u_color": "color",
				"u_roughness": "roughness",
				"u_metallic": "metallic",
				"u_light0Pos": "light0Pos",
				"u_light0Color": "light0Color",
				"u_light1Pos": "light1Pos",
				"u_light1Color": "light1Color"				
			},
			"states": {
				"enable": [
					2929,
					2884
				],
				"functions": {
					"cullFace": [1029]
				}
			}
		},
		"technique_mat24": {
			"program": "program_mat24",
			"extras": {"gvrss" : "https://vr.google.com/shaders/w/gvrss/glass.json"},
			"parameters": {
				"position": {
					"type": 35665,
					"semantic": "POSITION"
				},
				"normal": {
					"type": 35665,
					"semantic": "NORMAL"
				},
				"color": {
					"type": 35666,
					"semantic": "COLOR"
				},
				"modelViewMatrix": {
					"type": 35676,
					"semantic": "MODELVIEW"
				},
				"projectionMatrix": {
					"type": 35676,
					"semantic": "PROJECTION"
				},
				"normalMatrix": {
					"type": 35675,
					"semantic": "MODELVIEWINVERSETRANSPOSE"
				},
				"color": {
					"type": 35666
				},
				"roughness": {
					"type": 5126
				},
				"metallic": {
					"type": 5126
				},
				"light0Pos": {
					"type": 35666
				},
				"light0Color": {
					"type": 35666
				},
				"light1Pos": {
					"type": 35666
				},
				"light1Color": {
					"type": 35666
				}				
			},
			"attributes": {
				"a_position": "position",
				"a_normal": "normal",
				"a_color": "color"				
			},
			"uniforms": {
				"u_modelViewMatrix": "modelViewMatrix",
				"u_projectionMatrix": "projectionMatrix",
				"u_normalMatrix": "normalMatrix",
				"u_color": "color",
				"u_roughness": "roughness",
				"u_metallic": "metallic",
				"u_light0Pos": "light0Pos",
				"u_light0Color": "light0Color",
				"u_light1Pos": "light1Pos",
				"u_light1Color": "light1Color"				
			},
			"states": {
				"enable": [
					2929,
					3042
				],
				"functions": {
					"blendFuncSeparate": [775, 774, 773, 772],
					"depthMask": [true]
				}
			}
		},
		"technique_mat25": {
			"program": "program_mat25",
			"extras": {"gvrss" : "https://vr.google.com/shaders/w/gvrss/gem.json"},
			"parameters": {
				"position": {
					"type": 35665,
					"semantic": "POSITION"
				},
				"normal": {
					"type": 35665,
					"semantic": "NORMAL"
				},
				"color": {
					"type": 35666,
					"semantic": "COLOR"
				},
				"modelViewMatrix": {
					"type": 35676,
					"semantic": "MODELVIEW"
				},
				"projectionMatrix": {
					"type": 35676,
					"semantic": "PROJECTION"
				},
				"normalMatrix": {
					"type": 35675,
					"semantic": "MODELVIEWINVERSETRANSPOSE"
				},
				"color": {
					"type": 35666
				},
				"roughness": {
					"type": 5126
				},
				"metallic": {
					"type": 5126
				},
				"gem": {
					"type": 35678
				},
				"light0Pos": {
					"type": 35666
				},
				"light0Color": {
					"type": 35666
				},
				"light1Pos": {
					"type": 35666
				},
				"light1Color": {
					"type": 35666
				}				
			},
			"attributes": {
				"a_position": "position",
				"a_normal": "normal",
				"a_color": "color"				
			},
			"uniforms": {
				"u_modelViewMatrix": "modelViewMatrix",
				"u_projectionMatrix": "projectionMatrix",
				"u_normalMatrix": "normalMatrix",
				"u_color": "color",
				"u_roughness": "roughness",
				"u_metallic": "metallic",
				"u_gem": "gem",
				"u_light0Pos": "light0Pos",
				"u_light0Color": "light0Color",
				"u_light1Pos": "light1Pos",
				"u_light1Color": "light1Color"				
			},
			"states": {
				"enable": [
					2929,
					2884
				],
				"functions": {
					"cullFace": [1029]
				}
			}
		}
	},
	"samplers": {
		"sampler_LINEAR_LINEAR_REPEAT": {
			"magFilter": 9729,
			"minFilter": 9987,
			"wrapS": 10497,
			"wrapT": 10497
		}
	},
	"textures": {
		"texture_mat25_gem": {
			"format": 6408,
			"internalFormat": 6408,
			"sampler": "sampler_LINEAR_LINEAR_REPEAT",
			"source": "image_mat25_gem",
			"target": 3553,
			"type": 5121
		}
	},
	"images": {
		"image_mat25_gem": {
			"uri": "https://vr.google.com/shaders/w/GemRefractions.png"
		}
	},
	"materials": {
		"material_mat4": {
			"technique": "technique_mat4",
			"values": {
				"color": [0, 0.7372549, 0.8313726, 1],
				"roughness": 1,
				"metallic": 0,
				"light0Pos": [-0.02, 4.11, -0.54, 0],
				"light0Color": [1.28, 1.232075, 1.101177, 0],
				"light1Pos": [0.02, -4.11, 0.54, 0],
				"light1Color": [0.2941177, 0.2953672, 0.32, 0]				
			},
			"name": "material_mat4"
		},
		"material_mat24": {
			"technique": "technique_mat24",
			"values": {
				"color": [0.8392157, 0.8392157, 0.8392157, 0.2509804],
				"roughness": 0,
				"metallic": 0,
				"light0Pos": [-0.02, 4.11, -0.54, 0],
				"light0Color": [1.28, 1.232075, 1.101177, 0],
				"light1Pos": [0.02, -4.11, 0.54, 0],
				"light1Color": [0.2941177, 0.2953672, 0.32, 0]				
			},
			"name": "material_mat24"
		},
		"material_mat25": {
			"technique": "technique_mat25",
			"values": {
				"color": [1, 1, 1, 1],
				"roughness": 0.001,
				"metallic": 0,
				"gem": "texture_mat25_gem",
				"light0Pos": [-0.02, 4.11, -0.54, 0],
				"light0Color": [1.28, 1.232075, 1.101177, 0],
				"light1Pos": [0.02, -4.11, 0.54, 0],
				"light1Color": [0.2941177, 0.2953672, 0.32, 0]				
			},
			"name": "material_mat25"
		}
	},
	"nodes": {
		"node_MeshObject1264612352-PolyPaper4": {
			"name": "node_MeshObject1264612352-PolyPaper4",
			"meshes": [
				"mesh_m0-PolyPaper4_-1380100"
			],
			"matrix": [1, 0, 0, 0, 0, 1, 0, 0, 0, 0, 1, 0, 0, 0, 0, 1]
		},
		"node_MeshObject1836691456-PolyGlass24": {
			"name": "node_MeshObject1836691456-PolyGlass24",
			"meshes": [
				"mesh_m1-PolyGlass24_-1380106"
			],
			"matrix": [1, 0, 0, 0, 0, 1, 0, 0, 0, 0, 1, 0, 0, 0, 0, 1]
		},
		"node_MeshObject-1886196736-PolyGem25": {
			"name": "node_MeshObject-1886196736-PolyGem25",
			"meshes": [
				"mesh_m2-PolyGem25_-1380112"
			],
			"matrix": [1, 0, 0, 0, 0, 1, 0, 0, 0, 0, 1, 0, 0, 0, 0, 1]
		}
	},
	"scene": "defaultScene",
	"scenes": {
		"defaultScene": {
			"nodes": [
				"node_MeshObject1264612352-PolyPaper4",
				"node_MeshObject1836691456-PolyGlass24",
				"node_MeshObject-1886196736-PolyGem25"
			],
			"extras": {

			}
		}
	}
}