{
	"asset": {
		"generator": "Blocks 4.0.1_OVR_RC0",
		"version": "1.1",
		"copyright": "Unknown"
	},
	"buffers": {
		"model": {
			"byteLength": 966384,
			"type": "arraybuffer",
			"uri": "model.bin"
		}
	},
	"accessors": {
		"accessor_position_m0-PolyPaper4_-1285902": {
			"bufferView": "vec3BufferView",
			"byteOffset": 0,
			"byteStride": 12,
			"componentType": 5126,
			"count": 16274,
			"max": [ 4.030374, -2.78172, -1.874429 ],
			"min": [ 1.648716, -4.181513, -4.182281 ],
			"type": "VEC3"
		 },
		"accessor_normal_m0-PolyPaper4_-1285902": {
			"bufferView": "vec3BufferView",
			"byteOffset": 195288,
			"byteStride": 12,
			"componentType": 5126,
			"count": 16274,
			"max": [ 0.9996389, 0.999855, 0.9996709 ],
			"min": [ -0.9996389, -0.9999312, -0.9996914 ],
			"type": "VEC3"
		 },
		"accessor_color_m0-PolyPaper4_-1285902": {
			"bufferView": "vec4BufferView",
			"byteOffset": 0,
			"byteStride": 16,
			"componentType": 5126,
			"count": 16274,
			"max": [ 1, 1, 1, 1 ],
			"min": [ 0, 0.1019608, 0, 1 ],
			"type": "VEC4"
		 },
		"accessor_indices_0_m0-PolyPaper4_-1285902": {
			"bufferView": "ushortBufferView",
			"byteOffset": 0,
			"byteStride": 0,
			"componentType": 5123,
			"count": 24444,
			"max": [ 16273 ],
			"min": [ 0 ],
			"type": "SCALAR"
		 },
		"accessor_position_m1-PolyPaper8_-1285908": {
			"bufferView": "vec3BufferView",
			"byteOffset": 390576,
			"byteStride": 12,
			"componentType": 5126,
			"count": 6112,
			"max": [ 4.345806, -2.298421, -1.59915 ],
			"min": [ 1.649334, -4.180933, -4.34756 ],
			"type": "VEC3"
		 },
		"accessor_normal_m1-PolyPaper8_-1285908": {
			"bufferView": "vec3BufferView",
			"byteOffset": 463920,
			"byteStride": 12,
			"componentType": 5126,
			"count": 6112,
			"max": [ 0.9995904, 0.9999851, 0.9982101 ],
			"min": [ -0.9992553, -0.999978, -0.9982101 ],
			"type": "VEC3"
		 },
		"accessor_color_m1-PolyPaper8_-1285908": {
			"bufferView": "vec4BufferView",
			"byteOffset": 260384,
			"byteStride": 16,
			"componentType": 5126,
			"count": 6112,
			"max": [ 1, 1, 1, 1 ],
			"min": [ 0.1019608, 0.1019608, 0.1019608, 1 ],
			"type": "VEC4"
		 },
		"accessor_indices_0_m1-PolyPaper8_-1285908": {
			"bufferView": "ushortBufferView",
			"byteOffset": 48888,
			"byteStride": 0,
			"componentType": 5123,
			"count": 9456,
			"max": [ 6111 ],
			"min": [ 0 ],
			"type": "SCALAR"
		 },
		"accessor_position_m2-PolyGlass24_-1285914": {
			"bufferView": "vec3BufferView",
			"byteOffset": 537264,
			"byteStride": 12,
			"componentType": 5126,
			"count": 72,
			"max": [ 2.624008, -3.998565, -3.535011 ],
			"min": [ 2.478992, -4.025243, -3.680557 ],
			"type": "VEC3"
		 },
		"accessor_normal_m2-PolyGlass24_-1285914": {
			"bufferView": "vec3BufferView",
			"byteOffset": 538128,
			"byteStride": 12,
			"componentType": 5126,
			"count": 72,
			"max": [ 0.9727527, 0.9984713, 0.9713047 ],
			"min": [ -0.9727514, -0.9984716, -0.9713041 ],
			"type": "VEC3"
		 },
		"accessor_color_m2-PolyGlass24_-1285914": {
			"bufferView": "vec4BufferView",
			"byteOffset": 358176,
			"byteStride": 16,
			"componentType": 5126,
			"count": 72,
			"max": [ 1, 1, 1, 1 ],
			"min": [ 1, 1, 1, 1 ],
			"type": "VEC4"
		 },
		"accessor_indices_0_m2-PolyGlass24_-1285914": {
			"bufferView": "ushortBufferView",
			"byteOffset": 67800,
			"byteStride": 0,
			"componentType": 5123,
			"count": 132,
			"max": [ 71 ],
			"min": [ 0 ],
			"type": "SCALAR"
		 }
	},
	"bufferViews": {
		"ushortBufferView": {
			"buffer": "model",
			"byteLength": 68064,
			"byteOffset": 0,
			"target": 34963
		},
		"vec3BufferView": {
			"buffer": "model",
			"byteLength": 538992,
			"byteOffset": 68064,
			"target": 34962
		},
		"vec4BufferView": {
			"buffer": "model",
			"byteLength": 359328,
			"byteOffset": 607056,
			"target": 34962
		}
	},
	"meshes": {
		"mesh_m0-PolyPaper4_-1285902": {
			"name": "mesh_m0-PolyPaper4_-1285902",
			"primitives": [
				{
					"attributes": {
						"POSITION": "accessor_position_m0-PolyPaper4_-1285902",
						"NORMAL": "accessor_normal_m0-PolyPaper4_-1285902",
						"COLOR": "accessor_color_m0-PolyPaper4_-1285902"
					},
					"indices": "accessor_indices_0_m0-PolyPaper4_-1285902",
					"material": "material_mat4",
					"mode": 4
				}
			]
		},
		"mesh_m1-PolyPaper8_-1285908": {
			"name": "mesh_m1-PolyPaper8_-1285908",
			"primitives": [
				{
					"attributes": {
						"POSITION": "accessor_position_m1-PolyPaper8_-1285908",
						"NORMAL": "accessor_normal_m1-PolyPaper8_-1285908",
						"COLOR": "accessor_color_m1-PolyPaper8_-1285908"
					},
					"indices": "accessor_indices_0_m1-PolyPaper8_-1285908",
					"material": "material_mat8",
					"mode": 4
				}
			]
		},
		"mesh_m2-PolyGlass24_-1285914": {
			"name": "mesh_m2-PolyGlass24_-1285914",
			"primitives": [
				{
					"attributes": {
						"POSITION": "accessor_position_m2-PolyGlass24_-1285914",
						"NORMAL": "accessor_normal_m2-PolyGlass24_-1285914",
						"COLOR": "accessor_color_m2-PolyGlass24_-1285914"
					},
					"indices": "accessor_indices_0_m2-PolyGlass24_-1285914",
					"material": "material_mat24",
					"mode": 4
				}
			]
		}
	},
	"shaders": {
		"vertex_mat4": {
			"type": 35633,
			"uri": "https://vr.google.com/shaders/w/vs.glsl"
		},
		"fragment_mat4": {
			"type": 35632,
			"uri": "https://vr.google.com/shaders/w/fs.glsl"
		},
		"vertex_mat8": {
			"type": 35633,
			"uri": "https://vr.google.com/shaders/w/vs.glsl"
		},
		"fragment_mat8": {
			"type": 35632,
			"uri": "https://vr.google.com/shaders/w/fs.glsl"
		},
		"vertex_mat24": {
			"type": 35633,
			"uri": "https://vr.google.com/shaders/w/glassVS.glsl"
		},
		"fragment_mat24": {
			"type": 35632,
			"uri": "https://vr.google.com/shaders/w/glassFS.glsl"
		}
	},
	"programs": {
		"program_mat4": {
			"attributes": [
				"a_position",
				"a_normal",
				"a_color"				
			],
			"vertexShader": "vertex_mat4",
			"fragmentShader": "fragment_mat4"
		},
		"program_mat8": {
			"attributes": [
				"a_position",
				"a_normal",
				"a_color"				
			],
			"vertexShader": "vertex_mat8",
			"fragmentShader": "fragment_mat8"
		},
		"program_mat24": {
			"attributes": [
				"a_position",
				"a_normal",
				"a_color"				
			],
			"vertexShader": "vertex_mat24",
			"fragmentShader": "fragment_mat24"
		}
	},
	"techniques": {
		"technique_mat4": {
			"program": "program_mat4",
			"extras": {"gvrss" : "https://vr.google.com/shaders/w/gvrss/paper.json"},
			"parameters": {
				"position": {
					"type": 35665,
					"semantic": "POSITION"
				},
				"normal": {
					"type": 35665,
					"semantic": "NORMAL"
				},
				"color": {
					"type": 35666,
					"semantic": "COLOR"
				},
				"modelViewMatrix": {
					"type": 35676,
					"semantic": "MODELVIEW"
				},
				"projectionMatrix": {
					"type": 35676,
					"semantic": "PROJECTION"
				},
				"normalMatrix": {
					"type": 35675,
					"semantic": "MODELVIEWINVERSETRANSPOSE"
				},
				"color": {
					"type": 35666
				},
				"roughness": {
					"type": 5126
				},
				"metallic": {
					"type": 5126
				},
				"light0Pos": {
					"type": 35666
				},
				"light0Color": {
					"type": 35666
				},
				"light1Pos": {
					"type": 35666
				},
				"light1Color": {
					"type": 35666
				}				
			},
			"attributes": {
				"a_position": "position",
				"a_normal": "normal",
				"a_color": "color"				
			},
			"uniforms": {
				"u_modelViewMatrix": "modelViewMatrix",
				"u_projectionMatrix": "projectionMatrix",
				"u_normalMatrix": "normalMatrix",
				"u_color": "color",
				"u_roughness": "roughness",
				"u_metallic": "metallic",
				"u_light0Pos": "light0Pos",
				"u_light0Color": "light0Color",
				"u_light1Pos": "light1Pos",
				"u_light1Color": "light1Color"				
			},
			"states": {
				"enable": [
					2929,
					2884
				],
				"functions": {
					"cullFace": [1029]
				}
			}
		},
		"technique_mat8": {
			"program": "program_mat8",
			"extras": {"gvrss" : "https://vr.google.com/shaders/w/gvrss/paper.json"},
			"parameters": {
				"position": {
					"type": 35665,
					"semantic": "POSITION"
				},
				"normal": {
					"type": 35665,
					"semantic": "NORMAL"
				},
				"color": {
					"type": 35666,
					"semantic": "COLOR"
				},
				"modelViewMatrix": {
					"type": 35676,
					"semantic": "MODELVIEW"
				},
				"projectionMatrix": {
					"type": 35676,
					"semantic": "PROJECTION"
				},
				"normalMatrix": {
					"type": 35675,
					"semantic": "MODELVIEWINVERSETRANSPOSE"
				},
				"color": {
					"type": 35666
				},
				"roughness": {
					"type": 5126
				},
				"metallic": {
					"type": 5126
				},
				"light0Pos": {
					"type": 35666
				},
				"light0Color": {
					"type": 35666
				},
				"light1Pos": {
					"type": 35666
				},
				"light1Color": {
					"type": 35666
				}				
			},
			"attributes": {
				"a_position": "position",
				"a_normal": "normal",
				"a_color": "color"				
			},
			"uniforms": {
				"u_modelViewMatrix": "modelViewMatrix",
				"u_projectionMatrix": "projectionMatrix",
				"u_normalMatrix": "normalMatrix",
				"u_color": "color",
				"u_roughness": "roughness",
				"u_metallic": "metallic",
				"u_light0Pos": "light0Pos",
				"u_light0Color": "light0Color",
				"u_light1Pos": "light1Pos",
				"u_light1Color": "light1Color"				
			},
			"states": {
				"enable": [
					2929,
					2884
				],
				"functions": {
					"cullFace": [1029]
				}
			}
		},
		"technique_mat24": {
			"program": "program_mat24",
			"extras": {"gvrss" : "https://vr.google.com/shaders/w/gvrss/glass.json"},
			"parameters": {
				"position": {
					"type": 35665,
					"semantic": "POSITION"
				},
				"normal": {
					"type": 35665,
					"semantic": "NORMAL"
				},
				"color": {
					"type": 35666,
					"semantic": "COLOR"
				},
				"modelViewMatrix": {
					"type": 35676,
					"semantic": "MODELVIEW"
				},
				"projectionMatrix": {
					"type": 35676,
					"semantic": "PROJECTION"
				},
				"normalMatrix": {
					"type": 35675,
					"semantic": "MODELVIEWINVERSETRANSPOSE"
				},
				"color": {
					"type": 35666
				},
				"roughness": {
					"type": 5126
				},
				"metallic": {
					"type": 5126
				},
				"light0Pos": {
					"type": 35666
				},
				"light0Color": {
					"type": 35666
				},
				"light1Pos": {
					"type": 35666
				},
				"light1Color": {
					"type": 35666
				}				
			},
			"attributes": {
				"a_position": "position",
				"a_normal": "normal",
				"a_color": "color"				
			},
			"uniforms": {
				"u_modelViewMatrix": "modelViewMatrix",
				"u_projectionMatrix": "projectionMatrix",
				"u_normalMatrix": "normalMatrix",
				"u_color": "color",
				"u_roughness": "roughness",
				"u_metallic": "metallic",
				"u_light0Pos": "light0Pos",
				"u_light0Color": "light0Color",
				"u_light1Pos": "light1Pos",
				"u_light1Color": "light1Color"				
			},
			"states": {
				"enable": [
					2929,
					3042
				],
				"functions": {
					"blendFuncSeparate": [775, 774, 773, 772],
					"depthMask": [true]
				}
			}
		}
	},
	"materials": {
		"material_mat4": {
			"technique": "technique_mat4",
			"values": {
				"color": [0, 0.7372549, 0.8313726, 1],
				"roughness": 1,
				"metallic": 0,
				"light0Pos": [-0.02, 4.11, -0.54, 0],
				"light0Color": [1.28, 1.232075, 1.101177, 0],
				"light1Pos": [0.02, -4.11, 0.54, 0],
				"light1Color": [0.2941177, 0.2953672, 0.32, 0]				
			},
			"name": "material_mat4"
		},
		"material_mat8": {
			"technique": "technique_mat8",
			"values": {
				"color": [0.9568627, 0.2627451, 0.2117647, 1],
				"roughness": 1,
				"metallic": 0,
				"light0Pos": [-0.02, 4.11, -0.54, 0],
				"light0Color": [1.28, 1.232075, 1.101177, 0],
				"light1Pos": [0.02, -4.11, 0.54, 0],
				"light1Color": [0.2941177, 0.2953672, 0.32, 0]				
			},
			"name": "material_mat8"
		},
		"material_mat24": {
			"technique": "technique_mat24",
			"values": {
				"color": [0.8392157, 0.8392157, 0.8392157, 0.2509804],
				"roughness": 0,
				"metallic": 0,
				"light0Pos": [-0.02, 4.11, -0.54, 0],
				"light0Color": [1.28, 1.232075, 1.101177, 0],
				"light1Pos": [0.02, -4.11, 0.54, 0],
				"light1Color": [0.2941177, 0.2953672, 0.32, 0]				
			},
			"name": "material_mat24"
		}
	},
	"nodes": {
		"node_MeshObject-1612319744-PolyPaper4": {
			"name": "node_MeshObject-1612319744-PolyPaper4",
			"meshes": [
				"mesh_m0-PolyPaper4_-1285902"
			],
			"matrix": [1, 0, 0, 0, 0, 1, 0, 0, 0, 0, 1, 0, 0, 0, 0, 1]
		},
		"node_MeshObject-1040240640-PolyPaper8": {
			"name": "node_MeshObject-1040240640-PolyPaper8",
			"meshes": [
				"mesh_m1-PolyPaper8_-1285908"
			],
			"matrix": [1, 0, 0, 0, 0, 1, 0, 0, 0, 0, 1, 0, 0, 0, 0, 1]
		},
		"node_MeshObject-468161536-PolyGlass24": {
			"name": "node_MeshObject-468161536-PolyGlass24",
			"meshes": [
				"mesh_m2-PolyGlass24_-1285914"
			],
			"matrix": [1, 0, 0, 0, 0, 1, 0, 0, 0, 0, 1, 0, 0, 0, 0, 1]
		}
	},
	"scene": "defaultScene",
	"scenes": {
		"defaultScene": {
			"nodes": [
				"node_MeshObject-1612319744-PolyPaper4",
				"node_MeshObject-1040240640-PolyPaper8",
				"node_MeshObject-468161536-PolyGlass24"
			],
			"extras": {

			}
		}
	}
}